<svg width="28" height="32" viewBox="0 0 28 32" fill="none" xmlns="http://www.w3.org/2000/svg">
<path d="M27.9953 11.358V9.06569C27.9953 6.66132 27.0121 4.35543 25.2621 2.65528C23.512 0.955132 21.1385 0 18.6635 0H0V31.7947H9.33177V4.5976H14.011C15.2336 4.6042 16.4051 5.07544 17.2746 5.91049C18.1441 6.74554 18.6427 7.87806 18.6635 9.06569V11.358C18.6635 12.5636 18.1706 13.7199 17.293 14.5724C16.4155 15.4249 15.2253 15.9038 13.9843 15.9038H11.6914V20.4367H14.0243C15.2584 20.4469 16.4383 20.9304 17.3072 21.7817C18.1761 22.6331 18.6636 23.7835 18.6635 24.9825V31.7947H27.9953V24.9825C28.0096 23.6915 27.7398 22.4124 27.2042 21.2309C26.6685 20.0494 25.8792 18.9926 24.8892 18.1314C25.8691 17.2788 26.6524 16.2346 27.1877 15.0673C27.723 13.9 27.9982 12.6359 27.9953 11.358Z" fill="black"/>
</svg>
