<svg width="30" height="32" viewBox="0 0 30 32" fill="none" xmlns="http://www.w3.org/2000/svg">
<path d="M12.6438 4.5458H29.0011V0H7.93794C6.0782 0 4.29463 0.717714 2.97959 1.99525C1.66456 3.27279 0.925781 5.00551 0.925781 6.81222V18.1314H19.5893V24.9436C19.5859 25.5358 19.3441 26.1031 18.9156 26.5243C18.487 26.9454 17.9058 27.1869 17.2964 27.1971H0.925781V31.7429H21.9756C22.8969 31.7446 23.8095 31.5695 24.6611 31.2278C25.5126 30.8861 26.2863 30.3843 26.9378 29.7514C27.5893 29.1185 28.1058 28.3669 28.4575 27.5396C28.8093 26.7123 28.9895 25.8257 28.9877 24.9307V13.6244H10.3242V6.81222C10.3242 6.21336 10.5681 5.63884 11.0028 5.21418C11.4374 4.78951 12.0274 4.54922 12.6438 4.5458Z" fill="black"/>
</svg>
